<svg width="27" height="26" fill="none" xmlns="http://www.w3.org/2000/svg"><path d="M17.143 12.797a5.502 5.502 0 0 0-1.4-.642 19.7 19.7 0 0 0-.985-.268 20.845 20.845 0 0 0-1.107-.268 10.08 10.08 0 0 1-1.556-.46 1.62 1.62 0 0 1-.668-.484.914.914 0 0 1-.173-.613c0-.235.078-.462.222-.647a1.73 1.73 0 0 1 .759-.514 4.346 4.346 0 0 1 1.54-.235c.405-.006.809.047 1.198.159.258.072.502.19.718.349.14.1.26.226.353.371a1.083 1.083 0 1 0 1.907-1.027 3.41 3.41 0 0 0-.906-1.038 4.34 4.34 0 0 0-1.43-.725 6.248 6.248 0 0 0-1.839-.255 6.46 6.46 0 0 0-2.324.379 3.849 3.849 0 0 0-1.708 1.237 3.225 3.225 0 0 0-.654 1.947c-.018.7.204 1.384.628 1.941.41.516.947.916 1.558 1.162.462.177.935.325 1.416.442.008.003.015.01.024.013.208.062.54.146 1.018.249.187.04.363.085.538.13l.059.015.02.002c.268.07.527.14.764.212.292.086.57.211.827.373.16.1.295.237.393.399a1.3 1.3 0 0 1 .128.633c.015.284-.067.563-.232.793a1.91 1.91 0 0 1-.869.634 4.101 4.101 0 0 1-1.61.273 3.996 3.996 0 0 1-1.846-.372 1.903 1.903 0 0 1-.667-.593 1.1 1.1 0 0 1-.219-.545 1.083 1.083 0 1 0-2.166 0c.017.64.227 1.258.602 1.777.374.539.873.98 1.454 1.286a6.09 6.09 0 0 0 2.841.614 6.184 6.184 0 0 0 2.442-.439 4.02 4.02 0 0 0 1.804-1.379c.433-.607.656-1.34.633-2.086.01-.579-.13-1.15-.407-1.658a3.43 3.43 0 0 0-1.08-1.14v-.002Zm7.823 2.035A11.364 11.364 0 0 0 11.91 1.776a7.04 7.04 0 0 0-9.393 9.393 11.365 11.365 0 0 0 13.054 13.054 7.041 7.041 0 0 0 9.393-9.392Zm-6.35 7.918a4.88 4.88 0 0 1-2.35-.605 1.088 1.088 0 0 0-.734-.114A9.2 9.2 0 0 1 4.711 11.207c.049-.25.008-.51-.115-.733a4.875 4.875 0 0 1 6.621-6.62c.224.123.484.164.735.114a9.2 9.2 0 0 1 10.82 10.823c-.049.25-.008.51.115.733a4.874 4.874 0 0 1-4.27 7.225Z" fill="#fff"/></svg>