<svg width="26" height="26" fill="none" xmlns="http://www.w3.org/2000/svg"><path d="M18.884 5.42a1.3 1.3 0 1 0 0 2.6 1.3 1.3 0 0 0 0-2.6Zm4.983 2.62a8.224 8.224 0 0 0-.498-2.632 5.352 5.352 0 0 0-1.257-1.917 5.092 5.092 0 0 0-1.917-1.246 7.908 7.908 0 0 0-2.633-.51c-1.148-.064-1.516-.064-4.463-.064s-3.315 0-4.463.065c-.9.019-1.79.19-2.633.51A5.178 5.178 0 0 0 4.086 3.49 5.092 5.092 0 0 0 2.84 5.408a7.909 7.909 0 0 0-.51 2.633c-.064 1.148-.064 1.517-.064 4.463 0 2.947 0 3.315.065 4.464.018.9.19 1.79.509 2.632.264.725.69 1.381 1.246 1.918a5.18 5.18 0 0 0 1.917 1.245 7.91 7.91 0 0 0 2.633.51c1.148.065 1.516.065 4.463.065s3.315 0 4.463-.065a7.91 7.91 0 0 0 2.633-.51 5.092 5.092 0 0 0 1.917-1.245A5.256 5.256 0 0 0 23.37 19.6a8.224 8.224 0 0 0 .498-2.632c0-1.149.065-1.517.065-4.464 0-2.946 0-3.315-.065-4.463Zm-1.95 8.798a6.078 6.078 0 0 1-.368 2.015c-.173.471-.45.897-.813 1.245a3.456 3.456 0 0 1-1.245.813 6.078 6.078 0 0 1-2.015.368c-1.084.054-1.484.065-4.334.065-2.849 0-3.25 0-4.333-.065a6.205 6.205 0 0 1-2.102-.325 3.542 3.542 0 0 1-1.191-.812 3.25 3.25 0 0 1-.802-1.246 6.002 6.002 0 0 1-.433-2.058c0-1.084-.065-1.485-.065-4.334 0-2.849 0-3.25.065-4.333.004-.703.133-1.4.379-2.058a3.25 3.25 0 0 1 .856-1.192c.329-.373.736-.668 1.191-.867a6.208 6.208 0 0 1 2.059-.368c1.083 0 1.484-.065 4.333-.065 2.85 0 3.25 0 4.333.065a6.077 6.077 0 0 1 2.015.368c.493.183.934.48 1.29.867.355.333.632.74.812 1.192.24.66.365 1.356.368 2.058.054 1.083.065 1.484.065 4.333 0 2.85-.01 3.25-.065 4.334ZM13.1 6.947a5.558 5.558 0 1 0 5.568 5.557A5.546 5.546 0 0 0 13.1 6.947Zm0 9.165a3.608 3.608 0 1 1 0-7.216 3.608 3.608 0 0 1 0 7.216Z" fill="#fff"/></svg>