<svg width="27" height="26" fill="none" xmlns="http://www.w3.org/2000/svg"><path d="M25.135 4.279a1.082 1.082 0 0 0-1.635-.932 8.103 8.103 0 0 1-2.03.86 5.581 5.581 0 0 0-3.656-1.345 5.668 5.668 0 0 0-5.658 5.485 11.951 11.951 0 0 1-7.382-4.251 1.096 1.096 0 0 0-.928-.396 1.082 1.082 0 0 0-.85.542 5.716 5.716 0 0 0-.263 5.166l-.002.002a1.128 1.128 0 0 0-.537.964c-.002.159.008.318.029.475a5.617 5.617 0 0 0 1.699 3.588 1.08 1.08 0 0 0-.072.834 5.638 5.638 0 0 0 2.559 3.166 8.087 8.087 0 0 1-3.89.485 1.083 1.083 0 0 0-.72 1.986 14.02 14.02 0 0 0 7.595 2.233 13.854 13.854 0 0 0 13.503-10.143c.383-1.282.578-2.613.58-3.95l-.001-.217a6.252 6.252 0 0 0 1.66-4.552Zm-3.581 3.48c-.18.211-.27.483-.254.76.011.179.01.359.01.529a11.73 11.73 0 0 1-.492 3.336 11.576 11.576 0 0 1-11.424 8.591c-.93 0-1.858-.11-2.763-.326a10.27 10.27 0 0 0 3.187-1.694 1.083 1.083 0 0 0-.652-1.935 3.475 3.475 0 0 1-2.398-1.013 5.35 5.35 0 0 0 .482-.114 1.084 1.084 0 0 0-.087-2.105 3.465 3.465 0 0 1-2.438-1.87c.196.027.393.044.59.05a1.105 1.105 0 0 0 1.067-.754 1.083 1.083 0 0 0-.433-1.231 3.462 3.462 0 0 1-1.538-3.11 14.099 14.099 0 0 0 8.894 3.77 1.105 1.105 0 0 0 .886-.39 1.083 1.083 0 0 0 .223-.94 3.422 3.422 0 0 1-.095-.79A3.5 3.5 0 0 1 19.2 5.315c.438.19.83.469 1.155.819a1.075 1.075 0 0 0 .997.322c.445-.086.884-.203 1.313-.348a7.236 7.236 0 0 1-1.111 1.65Z" fill="#fff"/></svg>