<svg width="94" height="94" fill="none" xmlns="http://www.w3.org/2000/svg"><path d="M17.95 67.84c-4.034-4.284-6.2-9.09-6.2-16.88 0-13.709 9.623-25.995 23.617-32.07l3.498 5.397C25.803 31.353 23.25 40.522 22.231 46.303c2.103-1.089 4.857-1.469 7.555-1.218 7.066.654 12.635 6.454 12.635 13.665a13.708 13.708 0 0 1-13.708 13.708 15.162 15.162 0 0 1-10.763-4.617Zm39.167 0c-4.034-4.284-6.2-9.09-6.2-16.88 0-13.709 9.623-25.995 23.617-32.07l3.498 5.397C64.97 31.353 62.416 40.522 61.398 46.303c2.103-1.089 4.856-1.469 7.555-1.218 7.066.654 12.635 6.454 12.635 13.665A13.708 13.708 0 0 1 67.88 72.458a15.161 15.161 0 0 1-10.763-4.617Z" fill="#333"/></svg>