<svg width="220" height="48" fill="none" xmlns="http://www.w3.org/2000/svg"><path d="M23.36 12.344 15.232 28.12V35H8.128v-6.88L0 12.344h8.128l3.616 8.032 3.616-8.032h8Zm12.655-.384c2.133 0 4.085.501 5.856 1.504a10.824 10.824 0 0 1 4.192 4.128c1.045 1.77 1.568 3.765 1.568 5.984s-.523 4.213-1.568 5.984a10.99 10.99 0 0 1-4.224 4.16c-1.77 1.003-3.712 1.504-5.824 1.504-2.133 0-4.096-.501-5.888-1.504a11.29 11.29 0 0 1-4.224-4.16c-1.045-1.77-1.568-3.765-1.568-5.984s.523-4.213 1.568-5.984c1.045-1.77 2.453-3.147 4.224-4.128 1.792-1.003 3.755-1.504 5.888-1.504Zm0 6.56c-1.43 0-2.528.459-3.296 1.376-.768.896-1.152 2.123-1.152 3.68 0 1.536.384 2.763 1.152 3.68.768.896 1.867 1.344 3.296 1.344 1.408 0 2.496-.448 3.264-1.344.768-.917 1.152-2.144 1.152-3.68 0-1.557-.384-2.784-1.152-3.68-.768-.917-1.856-1.376-3.264-1.376Zm24.995-6.4c2.965 0 5.376.715 7.232 2.144 1.877 1.43 2.986 3.37 3.328 5.824h-7.488a2.653 2.653 0 0 0-1.184-1.024c-.512-.256-1.13-.384-1.856-.384-1.366 0-2.422.448-3.168 1.344-.747.875-1.12 2.08-1.12 3.616 0 1.77.416 3.093 1.248 3.968.832.875 2.112 1.312 3.84 1.312 1.642 0 2.965-.661 3.968-1.984h-5.664v-5.024h11.552v7.104c-.982 1.685-2.336 3.136-4.064 4.352-1.728 1.195-3.915 1.792-6.56 1.792-2.347 0-4.395-.48-6.144-1.44a10.127 10.127 0 0 1-4-4.096c-.918-1.75-1.376-3.744-1.376-5.984 0-2.24.458-4.235 1.376-5.984a9.919 9.919 0 0 1 4-4.064c1.728-.981 3.754-1.472 6.08-1.472Zm27.774 19.456h-7.552L80.112 35h-7.456l8.288-22.656h8.192L97.392 35h-7.488l-1.12-3.424Zm-1.728-5.344-2.048-6.304-2.048 6.304h4.096Z" fill="#fff"/><path d="M116.51 28.312c0 1.301-.341 2.475-1.024 3.52-.661 1.045-1.632 1.877-2.912 2.496-1.28.597-2.805.896-4.576.896-2.709 0-4.949-.63-6.72-1.888-1.75-1.28-2.698-3.147-2.848-5.6h7.552c.107 1.301.683 1.952 1.728 1.952.363 0 .651-.096.864-.288.235-.192.352-.47.352-.832 0-.533-.277-.95-.832-1.248-.533-.32-1.408-.683-2.624-1.088-1.429-.47-2.624-.95-3.584-1.44-.938-.49-1.76-1.216-2.464-2.176-.704-.96-1.056-2.208-1.056-3.744 0-1.472.374-2.72 1.12-3.744.768-1.045 1.803-1.835 3.104-2.368 1.323-.533 2.806-.8 4.448-.8 2.71 0 4.864.63 6.464 1.888 1.6 1.259 2.475 3.072 2.624 5.44h-7.648c-.106-1.195-.597-1.792-1.472-1.792a.998.998 0 0 0-.736.288c-.192.17-.288.437-.288.8 0 .49.267.896.8 1.216.555.299 1.408.65 2.56 1.056 1.451.512 2.646 1.024 3.584 1.536.96.49 1.792 1.227 2.496 2.208.726.96 1.088 2.197 1.088 3.712Zm20.288-15.968v5.632h-6.016V35h-7.104V17.976h-5.952v-5.632h19.072Zm8.871 0v12.768c0 1.045.224 1.877.672 2.496.469.597 1.216.896 2.24.896 1.024 0 1.781-.299 2.272-.896.491-.619.736-1.45.736-2.496V12.344h7.072v12.768c0 2.155-.448 4-1.344 5.536a8.635 8.635 0 0 1-3.68 3.424c-1.557.768-3.296 1.152-5.216 1.152-1.92 0-3.627-.384-5.12-1.152-1.472-.768-2.624-1.91-3.456-3.424-.832-1.515-1.248-3.36-1.248-5.536V12.344h7.072Zm37.272 11.264c0 2.155-.48 4.096-1.44 5.824-.96 1.728-2.336 3.093-4.128 4.096-1.771.981-3.84 1.472-6.208 1.472h-9.44V12.344h9.44c2.368 0 4.437.48 6.208 1.44 1.792.96 3.168 2.293 4.128 4 .96 1.707 1.44 3.648 1.44 5.824Zm-12.416 5.056c1.6 0 2.869-.437 3.808-1.312.939-.875 1.408-2.123 1.408-3.744s-.469-2.87-1.408-3.744c-.939-.875-2.208-1.312-3.808-1.312h-1.696v10.112h1.696Zm22.085-16.32V35h-7.104V12.344h7.104Zm14.249-.384c2.133 0 4.085.501 5.856 1.504a10.829 10.829 0 0 1 4.192 4.128c1.045 1.77 1.568 3.765 1.568 5.984s-.523 4.213-1.568 5.984a10.99 10.99 0 0 1-4.224 4.16c-1.771 1.003-3.712 1.504-5.824 1.504-2.134 0-4.096-.501-5.888-1.504a11.286 11.286 0 0 1-4.224-4.16c-1.046-1.77-1.568-3.765-1.568-5.984s.522-4.213 1.568-5.984c1.045-1.77 2.453-3.147 4.224-4.128 1.792-1.003 3.754-1.504 5.888-1.504Zm0 6.56c-1.43 0-2.528.459-3.296 1.376-.768.896-1.152 2.123-1.152 3.68 0 1.536.384 2.763 1.152 3.68.768.896 1.866 1.344 3.296 1.344 1.408 0 2.496-.448 3.264-1.344.768-.917 1.152-2.144 1.152-3.68 0-1.557-.384-2.784-1.152-3.68-.768-.917-1.856-1.376-3.264-1.376Z" fill="#73A35A"/></svg>