<svg width="152" height="33" fill="none" xmlns="http://www.w3.org/2000/svg"><path d="M16.302 8.424 10.714 19.27V24H5.83v-4.73L.242 8.424H5.83l2.486 5.522 2.486-5.522h5.5Zm8.7-.264c1.467 0 2.81.345 4.027 1.034a7.442 7.442 0 0 1 2.881 2.838c.72 1.217 1.079 2.589 1.079 4.114s-.36 2.897-1.078 4.114a7.556 7.556 0 0 1-2.905 2.86c-1.217.69-2.552 1.034-4.003 1.034-1.467 0-2.817-.345-4.049-1.034a7.763 7.763 0 0 1-2.904-2.86c-.718-1.217-1.078-2.589-1.078-4.114s.36-2.897 1.078-4.114a7.6 7.6 0 0 1 2.904-2.838c1.232-.69 2.582-1.034 4.049-1.034Zm0 4.51c-.982 0-1.737.315-2.265.946-.528.616-.792 1.46-.792 2.53 0 1.056.264 1.9.791 2.53.529.616 1.284.924 2.267.924.968 0 1.715-.308 2.244-.924.527-.63.791-1.474.791-2.53 0-1.07-.264-1.914-.791-2.53-.529-.63-1.276-.946-2.244-.946Zm17.184-4.4c2.04 0 3.696.491 4.972 1.474 1.291.983 2.054 2.317 2.288 4.004h-5.148a1.823 1.823 0 0 0-.814-.704c-.352-.176-.777-.264-1.276-.264-.938 0-1.664.308-2.178.924-.513.601-.77 1.43-.77 2.486 0 1.217.286 2.127.858 2.728.572.601 1.452.902 2.64.902 1.13 0 2.04-.455 2.728-1.364h-3.894v-3.454h7.942v4.884c-.674 1.159-1.606 2.156-2.794 2.992-1.188.821-2.69 1.232-4.51 1.232-1.613 0-3.02-.33-4.224-.99a6.962 6.962 0 0 1-2.75-2.816c-.63-1.203-.946-2.574-.946-4.114s.316-2.911.946-4.114a6.819 6.819 0 0 1 2.75-2.794c1.188-.675 2.582-1.012 4.18-1.012Zm19.095 13.376H56.09L55.32 24h-5.126l5.698-15.576h5.632L67.2 24h-5.148l-.77-2.354Zm-1.188-3.674-1.408-4.334-1.408 4.334h2.816Z" fill="#202020"/><path d="M80.343 19.402a4.33 4.33 0 0 1-.704 2.42c-.455.719-1.122 1.29-2.002 1.716-.88.41-1.929.616-3.146.616-1.863 0-3.403-.433-4.62-1.298-1.203-.88-1.855-2.163-1.958-3.85h5.192c.073.895.47 1.342 1.188 1.342.25 0 .447-.066.594-.198.161-.132.242-.323.242-.572 0-.367-.19-.653-.572-.858-.367-.22-.968-.47-1.804-.748-.983-.323-1.804-.653-2.464-.99-.645-.337-1.21-.836-1.694-1.496s-.726-1.518-.726-2.574c0-1.012.257-1.87.77-2.574.528-.719 1.24-1.261 2.134-1.628.91-.367 1.929-.55 3.058-.55 1.863 0 3.344.433 4.444 1.298s1.701 2.112 1.804 3.74h-5.258c-.073-.821-.41-1.232-1.012-1.232a.685.685 0 0 0-.506.198c-.132.117-.198.3-.198.55 0 .337.183.616.55.836.381.205.968.447 1.76.726.997.352 1.819.704 2.464 1.056.66.337 1.232.843 1.716 1.518.499.66.748 1.51.748 2.552ZM94.291 8.424v3.872h-4.136V24h-4.884V12.296h-4.092V8.424h13.112Zm6.099 0v8.778c0 .719.154 1.29.462 1.716.322.41.836.616 1.54.616.704 0 1.224-.205 1.562-.616.337-.425.506-.997.506-1.716V8.424h4.862v8.778c0 1.481-.308 2.75-.924 3.806a5.94 5.94 0 0 1-2.53 2.354c-1.071.528-2.266.792-3.586.792-1.32 0-2.494-.264-3.52-.792-1.012-.528-1.804-1.313-2.376-2.354-.572-1.041-.858-2.31-.858-3.806V8.424h4.862Zm25.624 7.744c0 1.481-.33 2.816-.99 4.004-.66 1.188-1.606 2.127-2.838 2.816-1.217.675-2.64 1.012-4.268 1.012h-6.49V8.424h6.49c1.628 0 3.051.33 4.268.99 1.232.66 2.178 1.577 2.838 2.75.66 1.173.99 2.508.99 4.004Zm-8.536 3.476c1.1 0 1.973-.3 2.618-.902.645-.601.968-1.46.968-2.574 0-1.115-.323-1.973-.968-2.574-.645-.601-1.518-.902-2.618-.902h-1.166v6.952h1.166Zm15.184-11.22V24h-4.884V8.424h4.884Zm9.796-.264c1.466 0 2.808.345 4.026 1.034a7.444 7.444 0 0 1 2.882 2.838c.718 1.217 1.078 2.589 1.078 4.114s-.36 2.897-1.078 4.114a7.556 7.556 0 0 1-2.904 2.86c-1.218.69-2.552 1.034-4.004 1.034-1.467 0-2.816-.345-4.048-1.034a7.753 7.753 0 0 1-2.904-2.86c-.719-1.217-1.078-2.589-1.078-4.114s.359-2.897 1.078-4.114a7.59 7.59 0 0 1 2.904-2.838c1.232-.69 2.581-1.034 4.048-1.034Zm0 4.51c-.983 0-1.738.315-2.266.946-.528.616-.792 1.46-.792 2.53 0 1.056.264 1.9.792 2.53.528.616 1.283.924 2.266.924.968 0 1.716-.308 2.244-.924.528-.63.792-1.474.792-2.53 0-1.07-.264-1.914-.792-2.53-.528-.63-1.276-.946-2.244-.946Z" fill="#73A35A"/></svg>