<svg width="26" height="26" viewBox="0 0 26 26" fill="none" xmlns="http://www.w3.org/2000/svg">
<path d="M18.884 5.41923C18.6268 5.41923 18.3755 5.49548 18.1617 5.63832C17.9479 5.78117 17.7813 5.9842 17.6829 6.22174C17.5845 6.45929 17.5588 6.72067 17.6089 6.97285C17.6591 7.22502 17.7829 7.45666 17.9647 7.63847C18.1465 7.82028 18.3782 7.94409 18.6303 7.99425C18.8825 8.04441 19.1439 8.01867 19.3814 7.92028C19.619 7.82188 19.822 7.65526 19.9649 7.44147C20.1077 7.22769 20.184 6.97635 20.184 6.71923C20.184 6.37445 20.047 6.04379 19.8032 5.79999C19.5594 5.5562 19.2287 5.41923 18.884 5.41923V5.41923ZM23.8673 8.0409C23.8462 7.14206 23.6779 6.25275 23.369 5.4084C23.0935 4.68596 22.6648 4.03178 22.1123 3.4909C21.5758 2.93561 20.9201 2.50959 20.1948 2.24507C19.3527 1.92674 18.4624 1.75454 17.5623 1.7359C16.414 1.6709 16.0456 1.6709 13.099 1.6709C10.1523 1.6709 9.78396 1.6709 8.63563 1.7359C7.73554 1.75454 6.84525 1.92674 6.00312 2.24507C5.27911 2.51227 4.62397 2.93792 4.08563 3.4909C3.53034 4.02734 3.10432 4.68304 2.83979 5.4084C2.52147 6.25052 2.34927 7.14081 2.33062 8.0409C2.26562 9.18923 2.26562 9.55757 2.26562 12.5042C2.26562 15.4509 2.26562 15.8192 2.33062 16.9676C2.34927 17.8677 2.52147 18.7579 2.83979 19.6001C3.10432 20.3254 3.53034 20.9811 4.08563 21.5176C4.62397 22.0705 5.27911 22.4962 6.00312 22.7634C6.84525 23.0817 7.73554 23.2539 8.63563 23.2726C9.78396 23.3376 10.1523 23.3376 13.099 23.3376C16.0456 23.3376 16.414 23.3376 17.5623 23.2726C18.4624 23.2539 19.3527 23.0817 20.1948 22.7634C20.9201 22.4989 21.5758 22.0729 22.1123 21.5176C22.6672 20.9787 23.0963 20.3239 23.369 19.6001C23.6779 18.7557 23.8462 17.8664 23.8673 16.9676C23.8673 15.8192 23.9323 15.4509 23.9323 12.5042C23.9323 9.55757 23.9323 9.18923 23.8673 8.0409V8.0409ZM21.9173 16.8376C21.9094 17.5252 21.7849 18.2066 21.549 18.8526C21.376 19.324 21.0982 19.75 20.7365 20.0984C20.3851 20.4564 19.96 20.7337 19.4906 20.9109C18.8446 21.1468 18.1633 21.2713 17.4756 21.2792C16.3923 21.3334 15.9915 21.3442 13.1423 21.3442C10.2931 21.3442 9.89229 21.3442 8.80896 21.2792C8.09492 21.2926 7.38394 21.1827 6.70729 20.9542C6.25856 20.768 5.85293 20.4914 5.51563 20.1417C5.15605 19.7937 4.88171 19.3674 4.71396 18.8959C4.44947 18.2406 4.30277 17.5438 4.28062 16.8376C4.28062 15.7542 4.21563 15.3534 4.21563 12.5042C4.21563 9.65507 4.21562 9.25423 4.28062 8.1709C4.28548 7.46788 4.41382 6.77117 4.65979 6.11257C4.85051 5.6553 5.14325 5.2477 5.51563 4.9209C5.84476 4.54841 6.25152 4.25259 6.70729 4.05423C7.36764 3.81595 8.06362 3.6914 8.76563 3.6859C9.84896 3.6859 10.2498 3.6209 13.099 3.6209C15.9481 3.6209 16.349 3.6209 17.4323 3.6859C18.12 3.69379 18.8013 3.81833 19.4473 4.05423C19.9396 4.23694 20.3814 4.53398 20.7365 4.9209C21.0915 5.25368 21.3689 5.66053 21.549 6.11257C21.7897 6.77224 21.9144 7.46866 21.9173 8.1709C21.9715 9.25423 21.9823 9.65507 21.9823 12.5042C21.9823 15.3534 21.9715 15.7542 21.9173 16.8376ZM13.099 6.94673C12.0003 6.94887 10.9268 7.27664 10.0143 7.8886C9.10183 8.50057 8.3912 9.36928 7.97223 10.385C7.55326 11.4007 7.44474 12.5177 7.6604 13.5951C7.87606 14.6724 8.40621 15.6616 9.18387 16.4378C9.96153 17.2139 10.9518 17.7422 12.0296 17.9557C13.1073 18.1693 14.2242 18.0586 15.239 17.6376C16.2539 17.2167 17.1212 16.5044 17.7314 15.5907C18.3416 14.677 18.6673 13.6029 18.6673 12.5042C18.6687 11.7731 18.5256 11.0489 18.2461 10.3733C17.9667 9.69765 17.5564 9.08394 17.0389 8.56745C16.5214 8.05096 15.9069 7.64188 15.2307 7.36374C14.5546 7.08559 13.8301 6.94387 13.099 6.94673V6.94673ZM13.099 16.1117C12.3855 16.1117 11.688 15.9002 11.0947 15.5038C10.5015 15.1074 10.0391 14.5439 9.76606 13.8848C9.49302 13.2256 9.42158 12.5002 9.56078 11.8004C9.69997 11.1007 10.0436 10.4579 10.5481 9.95334C11.0526 9.44883 11.6954 9.10525 12.3952 8.96605C13.095 8.82685 13.8203 8.89829 14.4795 9.17134C15.1387 9.44438 15.7021 9.90676 16.0985 10.5C16.4949 11.0933 16.7065 11.7907 16.7065 12.5042C16.7065 12.978 16.6131 13.4471 16.4319 13.8848C16.2506 14.3224 15.9848 14.7201 15.6498 15.0551C15.3149 15.3901 14.9172 15.6558 14.4795 15.8371C14.0418 16.0184 13.5727 16.1117 13.099 16.1117V16.1117Z" fill="white"/>
</svg>
