<svg width="27" height="26" viewBox="0 0 27 26" fill="none" xmlns="http://www.w3.org/2000/svg">
<path d="M17.1432 12.7972C16.7091 12.5185 16.2379 12.3023 15.7435 12.1548C15.4402 12.0627 15.1044 11.9728 14.7577 11.8872C14.4544 11.8027 14.0947 11.7161 13.6505 11.6186C13.1205 11.5075 12.6003 11.3539 12.0949 11.1592C11.8344 11.0581 11.6045 10.8912 11.4275 10.675C11.298 10.498 11.2365 10.2804 11.2542 10.0618C11.2538 9.82747 11.332 9.59975 11.4763 9.41508C11.6782 9.17854 11.9402 9.00079 12.2346 8.9005C12.7298 8.73034 13.2517 8.65106 13.7751 8.6665C14.1801 8.65978 14.5839 8.71308 14.9733 8.82466C15.2315 8.89732 15.4748 9.01545 15.6915 9.1735C15.8317 9.27354 15.9513 9.39971 16.0436 9.54508C16.1105 9.67132 16.2017 9.78309 16.312 9.87394C16.4222 9.9648 16.5494 10.0329 16.6861 10.0745C16.8228 10.116 16.9663 10.1301 17.1085 10.1159C17.2506 10.1017 17.3886 10.0595 17.5144 9.99178C17.6402 9.92406 17.7514 9.83213 17.8415 9.72127C17.9316 9.61042 17.9989 9.48283 18.0395 9.34585C18.0801 9.20888 18.0933 9.06523 18.0781 8.92316C18.063 8.7811 18.0199 8.64343 17.9514 8.51808C17.7229 8.11401 17.4144 7.76086 17.0446 7.48025C16.6174 7.15207 16.1329 6.9063 15.6157 6.7555C15.0187 6.57912 14.3987 6.49295 13.7762 6.49983C12.9849 6.4828 12.1973 6.61132 11.4524 6.879C10.7789 7.12421 10.1872 7.5527 9.74403 8.11616C9.31961 8.67644 9.08984 9.36003 9.0897 10.0629C9.07212 10.7627 9.29377 11.4475 9.71803 12.0042C10.1276 12.5201 10.6645 12.9204 11.2759 13.1656C11.7378 13.3433 12.2108 13.491 12.6918 13.6076C12.7004 13.6108 12.7069 13.6184 12.7156 13.6206C12.9236 13.6834 13.2551 13.7668 13.7339 13.8697C13.9214 13.9109 14.0969 13.9553 14.2724 13.9997C14.2897 14.0041 14.3146 14.0095 14.3309 14.0149L14.3504 14.0171C14.619 14.0864 14.8779 14.1568 15.1152 14.2294C15.4067 14.3147 15.6849 14.4401 15.9418 14.6021C16.102 14.7027 16.2366 14.8392 16.335 15.0007C16.4303 15.1979 16.4743 15.4159 16.4629 15.6345C16.4779 15.9175 16.3961 16.1971 16.231 16.4275C16.0081 16.7176 15.7065 16.9376 15.3622 17.0612C14.849 17.2593 14.3011 17.3522 13.7513 17.3342C13.1154 17.3587 12.4829 17.2309 11.9064 16.9616C11.6401 16.8198 11.4113 16.6166 11.239 16.369C11.1181 16.2105 11.0424 16.0222 11.0202 15.8241C11.0202 15.5368 10.9061 15.2612 10.7029 15.058C10.4997 14.8549 10.2242 14.7407 9.93686 14.7407C9.64955 14.7407 9.374 14.8549 9.17083 15.058C8.96767 15.2612 8.85353 15.5368 8.85353 15.8241C8.87139 16.4633 9.08127 17.0824 9.45586 17.6007C9.83023 18.1399 10.3289 18.5809 10.9097 18.8867C11.7934 19.3178 12.7684 19.5286 13.7513 19.5009C14.5865 19.5211 15.4172 19.3719 16.1931 19.0622C16.9144 18.7854 17.5407 18.3066 17.9969 17.6831C18.4305 17.0756 18.6528 16.3426 18.6295 15.5966C18.6396 15.0183 18.4996 14.4472 18.2233 13.9391C17.9564 13.4804 17.5867 13.0899 17.1432 12.7983V12.7972ZM24.9659 14.8317C25.258 13.0514 25.1221 11.227 24.5693 9.50965C24.0165 7.79225 23.0628 6.23112 21.7871 4.95538C20.5113 3.67964 18.9502 2.72594 17.2328 2.17317C15.5154 1.62039 13.6911 1.48442 11.9107 1.7765C10.5962 1.14624 9.11846 0.939548 7.68148 1.18497C6.2445 1.43038 4.91913 2.11581 3.88832 3.14662C2.85751 4.17743 2.17208 5.5028 1.92667 6.93978C1.68125 8.37676 1.88793 9.85449 2.5182 11.169C2.22636 12.9492 2.36247 14.7733 2.91528 16.4904C3.46809 18.2076 4.42171 19.7685 5.69729 21.0441C6.97288 22.3196 8.53378 23.2733 10.2509 23.8261C11.9681 24.3789 13.7922 24.515 15.5724 24.2232C16.8869 24.8534 18.3646 25.0601 19.8016 24.8147C21.2386 24.5693 22.5639 23.8839 23.5947 22.853C24.6256 21.8222 25.311 20.4969 25.5564 19.0599C25.8018 17.6229 25.5951 16.1452 24.9649 14.8307L24.9659 14.8317ZM18.6165 22.7498C17.7945 22.7495 16.9859 22.5415 16.2657 22.1453C16.0423 22.0222 15.7827 21.9816 15.5323 22.0305C14.1971 22.2968 12.8195 22.2634 11.4989 21.9328C10.1782 21.6022 8.94734 20.9826 7.89513 20.1187C6.84291 19.2548 5.99555 18.1681 5.41418 16.9371C4.83281 15.706 4.53191 14.3613 4.5332 12.9998C4.53431 12.3982 4.59381 11.7981 4.71086 11.208C4.75987 10.9576 4.71922 10.698 4.59603 10.4746C4.08736 9.54941 3.89278 8.48411 4.04156 7.43885C4.19034 6.3936 4.67444 5.4249 5.42105 4.6784C6.16767 3.93191 7.13645 3.44797 8.18173 3.29937C9.227 3.15076 10.2923 3.34551 11.2174 3.85433C11.441 3.97805 11.7011 4.01872 11.9519 3.96916C13.2869 3.70305 14.6644 3.73655 15.9849 4.06724C17.3055 4.39792 18.5362 5.01756 19.5883 5.88145C20.6404 6.74534 21.4876 7.83195 22.0689 9.06291C22.6502 10.2939 22.9511 11.6385 22.9499 12.9998C22.9487 13.6014 22.8892 14.2015 22.7722 14.7917C22.7232 15.042 22.7638 15.3017 22.887 15.5251C23.2957 16.2673 23.5038 17.1032 23.4909 17.9503C23.4779 18.7975 23.2444 19.6266 22.8133 20.356C22.3822 21.0854 21.7683 21.6897 21.0324 22.1095C20.2965 22.5293 19.4638 22.75 18.6165 22.7498Z" fill="white"/>
</svg>
