<svg width="27" height="26" viewBox="0 0 27 26" fill="none" xmlns="http://www.w3.org/2000/svg">
<path d="M25.1354 4.27886C25.1354 4.08764 25.0848 3.89984 24.9886 3.73454C24.8925 3.56923 24.7544 3.43231 24.5882 3.33768C24.4221 3.24305 24.2338 3.19408 24.0426 3.19575C23.8514 3.19742 23.6641 3.24967 23.4996 3.34719C22.8652 3.72507 22.1822 4.01447 21.4694 4.20736C20.4521 3.33449 19.1547 2.85688 17.8143 2.86185C16.3439 2.86362 14.9318 3.43671 13.876 4.46012C12.8202 5.48353 12.2035 6.87717 12.156 8.34677C9.2568 7.88454 6.62914 6.37134 4.77418 4.09577C4.66241 3.96032 4.51974 3.85371 4.35817 3.7849C4.19661 3.71608 4.02087 3.68709 3.84577 3.70035C3.6707 3.71484 3.50179 3.77173 3.35362 3.8661C3.20546 3.96048 3.08249 4.0895 2.99535 4.24202C2.5485 5.02191 2.29188 5.89619 2.24632 6.79387C2.20077 7.69155 2.36757 8.58732 2.73318 9.40844L2.73101 9.40952C2.56633 9.51071 2.43042 9.65253 2.33633 9.82137C2.24223 9.99021 2.19311 10.1804 2.19368 10.3737C2.19194 10.5327 2.20172 10.6917 2.22293 10.8493C2.33357 12.2122 2.93754 13.4879 3.9216 14.4373C3.85482 14.5646 3.8141 14.7039 3.80183 14.8472C3.78955 14.9904 3.80596 15.1346 3.8501 15.2714C4.27908 16.6084 5.19154 17.7372 6.40893 18.4369C5.17195 18.9152 3.83634 19.0818 2.51976 18.9223C2.2762 18.892 2.02957 18.9453 1.82027 19.0735C1.61096 19.2017 1.45139 19.3971 1.36768 19.6279C1.28398 19.8586 1.2811 20.1109 1.35952 20.3435C1.43795 20.576 1.59302 20.7751 1.79935 20.908C4.06374 22.3662 6.70022 23.1414 9.39352 23.1408C12.4477 23.1752 15.4276 22.1992 17.8698 20.3648C20.3119 18.5304 22.0794 15.9404 22.8973 12.9975C23.2796 11.7157 23.4748 10.3853 23.4768 9.04769L23.4758 8.83102C24.0414 8.22089 24.4796 7.50397 24.7646 6.72229C25.0496 5.94061 25.1757 5.10989 25.1354 4.27886V4.27886ZM21.5539 7.75852C21.3748 7.97001 21.284 8.24236 21.3004 8.51902C21.3113 8.69777 21.3102 8.87761 21.3102 9.04769C21.3079 10.1778 21.1422 11.3016 20.8184 12.3844C20.1507 14.8886 18.6619 17.0963 16.5904 18.654C14.519 20.2116 11.9847 21.029 9.39352 20.9752C8.46307 20.9753 7.53585 20.8659 6.63101 20.6491C7.7851 20.2769 8.86415 19.7033 9.81818 18.9548C9.9941 18.8165 10.1229 18.6271 10.1868 18.4126C10.2507 18.1982 10.2467 17.9692 10.1752 17.7571C10.1037 17.545 9.96833 17.3603 9.78762 17.2283C9.60692 17.0963 9.38977 17.0235 9.16602 17.0199C8.26547 17.0059 7.40556 16.6427 6.76751 16.007C6.92929 15.9767 7.08999 15.9388 7.2496 15.8933C7.48363 15.8267 7.68845 15.6834 7.83106 15.4863C7.97368 15.2891 8.04579 15.0498 8.03579 14.8067C8.02578 14.5636 7.93423 14.3309 7.77589 14.1462C7.61755 13.9615 7.40164 13.8354 7.16293 13.7884C6.64021 13.6851 6.14835 13.4627 5.7256 13.1384C5.30284 12.8141 4.96058 12.3966 4.72543 11.9185C4.92125 11.9453 5.11832 11.9619 5.31585 11.9684C5.55059 11.9722 5.78046 11.9012 5.97213 11.7656C6.1638 11.6301 6.30731 11.437 6.38185 11.2144C6.4534 10.9899 6.44981 10.7481 6.37161 10.5259C6.29341 10.3036 6.14487 10.1129 5.94852 9.98261C5.47178 9.66526 5.08121 9.23461 4.81179 8.72924C4.54237 8.22386 4.40252 7.65955 4.40477 7.08685C4.40477 7.01535 4.40693 6.94277 4.41127 6.87235C6.83952 9.13721 9.98925 10.4723 13.3054 10.6424C13.4729 10.6487 13.6396 10.6169 13.7929 10.5493C13.9462 10.4818 14.0822 10.3802 14.1905 10.2524C14.2978 10.1237 14.3738 9.97194 14.4125 9.80896C14.4512 9.64599 14.4516 9.47626 14.4137 9.31311C14.3517 9.05442 14.32 8.78937 14.3194 8.52336C14.3206 7.59682 14.6892 6.70856 15.3443 6.0534C15.9995 5.39824 16.8877 5.02967 17.8143 5.02852C18.2911 5.02711 18.763 5.12458 19.2003 5.31477C19.6375 5.50497 20.0306 5.78375 20.3547 6.13352C20.4796 6.26799 20.6369 6.36824 20.8116 6.42475C20.9862 6.48126 21.1724 6.49214 21.3524 6.45636C21.7975 6.36985 22.2361 6.2533 22.6654 6.10752C22.3727 6.70641 21.9987 7.262 21.5539 7.75852V7.75852Z" fill="white"/>
</svg>
