<svg width="94" height="94" viewBox="0 0 94 94" fill="none" xmlns="http://www.w3.org/2000/svg">
<path d="M17.9501 67.8406C13.9159 63.5558 11.75 58.75 11.75 50.9598C11.75 37.2515 21.3732 24.9649 35.3675 18.8901L38.8651 24.2873C25.803 31.353 23.2493 40.5219 22.231 46.3029C24.3342 45.214 27.0877 44.8341 29.7862 45.0848C36.8519 45.7389 42.4214 51.5395 42.4214 58.75C42.4214 62.3857 40.9771 65.8725 38.4063 68.4433C35.8355 71.0141 32.3488 72.4584 28.7131 72.4584C26.7025 72.4408 24.7155 72.0235 22.8677 71.2307C21.0199 70.438 19.3483 69.2856 17.9501 67.8406ZM57.1167 67.8406C53.0826 63.5558 50.9167 58.75 50.9167 50.9598C50.9167 37.2515 60.5399 24.9649 74.5342 18.8901L78.0317 24.2873C64.9697 31.353 62.416 40.5219 61.3977 46.3029C63.5009 45.214 66.2543 44.8341 68.9529 45.0848C76.0186 45.7389 81.5881 51.5395 81.5881 58.75C81.5881 62.3857 80.1438 65.8725 77.573 68.4433C75.0022 71.0141 71.5154 72.4584 67.8797 72.4584C65.8692 72.4408 63.8821 72.0235 62.0344 71.2307C60.1866 70.438 58.5149 69.2856 57.1167 67.8406Z" fill="#333333"/>
</svg>
