<svg width="220" height="48" viewBox="0 0 220 48" fill="none" xmlns="http://www.w3.org/2000/svg">
<path d="M23.36 12.344L15.232 28.12V35H8.128V28.12L0 12.344H8.128L11.744 20.376L15.36 12.344H23.36ZM36.015 11.96C38.1483 11.96 40.1003 12.4613 41.871 13.464C43.6417 14.4453 45.039 15.8213 46.063 17.592C47.1083 19.3627 47.631 21.3573 47.631 23.576C47.631 25.7947 47.1083 27.7893 46.063 29.56C45.039 31.3307 43.631 32.7173 41.839 33.72C40.0683 34.7227 38.127 35.224 36.015 35.224C33.8817 35.224 31.919 34.7227 30.127 33.72C28.3563 32.7173 26.9483 31.3307 25.903 29.56C24.8577 27.7893 24.335 25.7947 24.335 23.576C24.335 21.3573 24.8577 19.3627 25.903 17.592C26.9483 15.8213 28.3563 14.4453 30.127 13.464C31.919 12.4613 33.8817 11.96 36.015 11.96ZM36.015 18.52C34.5857 18.52 33.487 18.9787 32.719 19.896C31.951 20.792 31.567 22.0187 31.567 23.576C31.567 25.112 31.951 26.3387 32.719 27.256C33.487 28.152 34.5857 28.6 36.015 28.6C37.423 28.6 38.511 28.152 39.279 27.256C40.047 26.3387 40.431 25.112 40.431 23.576C40.431 22.0187 40.047 20.792 39.279 19.896C38.511 18.9787 37.423 18.52 36.015 18.52ZM61.0098 12.12C63.9751 12.12 66.3858 12.8347 68.2418 14.264C70.1191 15.6933 71.2284 17.6347 71.5698 20.088H64.0818C63.8044 19.64 63.4098 19.2987 62.8978 19.064C62.3858 18.808 61.7671 18.68 61.0418 18.68C59.6764 18.68 58.6204 19.128 57.8738 20.024C57.1271 20.8987 56.7538 22.104 56.7538 23.64C56.7538 25.4107 57.1698 26.7333 58.0017 27.608C58.8338 28.4827 60.1138 28.92 61.8418 28.92C63.4844 28.92 64.8071 28.2587 65.8098 26.936H60.1458V21.912H71.6978V29.016C70.7164 30.7013 69.3618 32.152 67.6338 33.368C65.9058 34.5627 63.7191 35.16 61.0738 35.16C58.7271 35.16 56.6791 34.68 54.9298 33.72C53.2018 32.7387 51.8684 31.3733 50.9298 29.624C50.0124 27.8747 49.5538 25.88 49.5538 23.64C49.5538 21.4 50.0124 19.4053 50.9298 17.656C51.8684 15.9067 53.2018 14.552 54.9298 13.592C56.6578 12.6107 58.6844 12.12 61.0098 12.12ZM88.7843 31.576H81.2323L80.1123 35H72.6562L80.9443 12.344H89.1363L97.3923 35H89.9043L88.7843 31.576ZM87.0563 26.232L85.0083 19.928L82.9603 26.232H87.0563Z" fill="white"/>
<path d="M116.51 28.312C116.51 29.6133 116.169 30.7867 115.486 31.832C114.825 32.8773 113.854 33.7093 112.574 34.328C111.294 34.9253 109.769 35.224 107.998 35.224C105.289 35.224 103.049 34.5947 101.278 33.336C99.5289 32.056 98.5796 30.1893 98.4303 27.736H105.982C106.089 29.0373 106.665 29.688 107.71 29.688C108.073 29.688 108.361 29.592 108.574 29.4C108.809 29.208 108.926 28.9307 108.926 28.568C108.926 28.0347 108.649 27.6187 108.094 27.32C107.561 27 106.686 26.6373 105.47 26.232C104.041 25.7627 102.846 25.2827 101.886 24.792C100.948 24.3013 100.126 23.576 99.4223 22.616C98.7183 21.656 98.3663 20.408 98.3663 18.872C98.3663 17.4 98.7396 16.152 99.4863 15.128C100.254 14.0827 101.289 13.2933 102.59 12.76C103.913 12.2267 105.396 11.96 107.038 11.96C109.748 11.96 111.902 12.5893 113.502 13.848C115.102 15.1067 115.977 16.92 116.126 19.288H108.478C108.372 18.0933 107.881 17.496 107.006 17.496C106.708 17.496 106.462 17.592 106.27 17.784C106.078 17.9547 105.982 18.2213 105.982 18.584C105.982 19.0747 106.249 19.48 106.782 19.8C107.337 20.0987 108.19 20.4507 109.342 20.856C110.793 21.368 111.988 21.88 112.926 22.392C113.886 22.8827 114.718 23.6187 115.422 24.6C116.148 25.56 116.51 26.7973 116.51 28.312ZM136.798 12.344V17.976H130.782V35H123.678V17.976H117.726V12.344H136.798ZM145.669 12.344V25.112C145.669 26.1573 145.893 26.9893 146.341 27.608C146.81 28.2053 147.557 28.504 148.581 28.504C149.605 28.504 150.362 28.2053 150.853 27.608C151.344 26.9893 151.589 26.1573 151.589 25.112V12.344H158.661V25.112C158.661 27.2667 158.213 29.112 157.317 30.648C156.421 32.1627 155.194 33.304 153.637 34.072C152.08 34.84 150.341 35.224 148.421 35.224C146.501 35.224 144.794 34.84 143.301 34.072C141.829 33.304 140.677 32.1627 139.845 30.648C139.013 29.1333 138.597 27.288 138.597 25.112V12.344H145.669ZM182.941 23.608C182.941 25.7627 182.461 27.704 181.501 29.432C180.541 31.16 179.165 32.5253 177.373 33.528C175.602 34.5093 173.533 35 171.165 35H161.725V12.344H171.165C173.533 12.344 175.602 12.824 177.373 13.784C179.165 14.744 180.541 16.0773 181.501 17.784C182.461 19.4907 182.941 21.432 182.941 23.608ZM170.525 28.664C172.125 28.664 173.394 28.2267 174.333 27.352C175.272 26.4773 175.741 25.2293 175.741 23.608C175.741 21.9867 175.272 20.7387 174.333 19.864C173.394 18.9893 172.125 18.552 170.525 18.552H168.829V28.664H170.525ZM192.61 12.344V35H185.506V12.344H192.61ZM206.859 11.96C208.992 11.96 210.944 12.4613 212.715 13.464C214.485 14.4453 215.883 15.8213 216.907 17.592C217.952 19.3627 218.475 21.3573 218.475 23.576C218.475 25.7947 217.952 27.7893 216.907 29.56C215.883 31.3307 214.475 32.7173 212.683 33.72C210.912 34.7227 208.971 35.224 206.859 35.224C204.725 35.224 202.763 34.7227 200.971 33.72C199.2 32.7173 197.792 31.3307 196.747 29.56C195.701 27.7893 195.179 25.7947 195.179 23.576C195.179 21.3573 195.701 19.3627 196.747 17.592C197.792 15.8213 199.2 14.4453 200.971 13.464C202.763 12.4613 204.725 11.96 206.859 11.96ZM206.859 18.52C205.429 18.52 204.331 18.9787 203.563 19.896C202.795 20.792 202.411 22.0187 202.411 23.576C202.411 25.112 202.795 26.3387 203.563 27.256C204.331 28.152 205.429 28.6 206.859 28.6C208.267 28.6 209.355 28.152 210.123 27.256C210.891 26.3387 211.275 25.112 211.275 23.576C211.275 22.0187 210.891 20.792 210.123 19.896C209.355 18.9787 208.267 18.52 206.859 18.52Z" fill="#73A35A"/>
</svg>
