<svg width="152" height="33" viewBox="0 0 152 33" fill="none" xmlns="http://www.w3.org/2000/svg">
<path d="M16.3022 8.424L10.7142 19.27V24H5.83019V19.27L0.242188 8.424H5.83019L8.31619 13.946L10.8022 8.424H16.3022ZM25.0025 8.16C26.4692 8.16 27.8112 8.50467 29.0285 9.194C30.2458 9.86867 31.2065 10.8147 31.9105 12.032C32.6292 13.2493 32.9885 14.6207 32.9885 16.146C32.9885 17.6713 32.6292 19.0427 31.9105 20.26C31.2065 21.4773 30.2385 22.4307 29.0065 23.12C27.7892 23.8093 26.4545 24.154 25.0025 24.154C23.5358 24.154 22.1865 23.8093 20.9545 23.12C19.7372 22.4307 18.7692 21.4773 18.0505 20.26C17.3318 19.0427 16.9725 17.6713 16.9725 16.146C16.9725 14.6207 17.3318 13.2493 18.0505 12.032C18.7692 10.8147 19.7372 9.86867 20.9545 9.194C22.1865 8.50467 23.5358 8.16 25.0025 8.16ZM25.0025 12.67C24.0198 12.67 23.2645 12.9853 22.7365 13.616C22.2085 14.232 21.9445 15.0753 21.9445 16.146C21.9445 17.202 22.2085 18.0453 22.7365 18.676C23.2645 19.292 24.0198 19.6 25.0025 19.6C25.9705 19.6 26.7185 19.292 27.2465 18.676C27.7745 18.0453 28.0385 17.202 28.0385 16.146C28.0385 15.0753 27.7745 14.232 27.2465 13.616C26.7185 12.9853 25.9705 12.67 25.0025 12.67ZM42.1864 8.27C44.2251 8.27 45.8824 8.76133 47.1584 9.744C48.4491 10.7267 49.2117 12.0613 49.4464 13.748H44.2984C44.1077 13.44 43.8364 13.2053 43.4844 13.044C43.1324 12.868 42.7071 12.78 42.2084 12.78C41.2697 12.78 40.5437 13.088 40.0304 13.704C39.5171 14.3053 39.2604 15.134 39.2604 16.19C39.2604 17.4073 39.5464 18.3167 40.1184 18.918C40.6904 19.5193 41.5704 19.82 42.7584 19.82C43.8877 19.82 44.7971 19.3653 45.4864 18.456H41.5924V15.002H49.5344V19.886C48.8597 21.0447 47.9284 22.042 46.7404 22.878C45.5524 23.6993 44.0491 24.11 42.2304 24.11C40.6171 24.11 39.2091 23.78 38.0064 23.12C36.8184 22.4453 35.9017 21.5067 35.2564 20.304C34.6257 19.1013 34.3104 17.73 34.3104 16.19C34.3104 14.65 34.6257 13.2787 35.2564 12.076C35.9017 10.8733 36.8184 9.942 38.0064 9.282C39.1944 8.60733 40.5877 8.27 42.1864 8.27ZM61.2814 21.646H56.0894L55.3194 24H50.1934L55.8914 8.424H61.5234L67.1994 24H62.0514L61.2814 21.646ZM60.0934 17.972L58.6854 13.638L57.2774 17.972H60.0934Z" fill="#202020"/>
<path d="M80.343 19.402C80.343 20.2967 80.1083 21.1033 79.639 21.822C79.1843 22.5407 78.517 23.1127 77.637 23.538C76.757 23.9487 75.7083 24.154 74.491 24.154C72.6283 24.154 71.0883 23.7213 69.871 22.856C68.6683 21.976 68.0157 20.6927 67.913 19.006H73.105C73.1783 19.9007 73.5743 20.348 74.293 20.348C74.5423 20.348 74.7403 20.282 74.887 20.15C75.0483 20.018 75.129 19.8273 75.129 19.578C75.129 19.2113 74.9383 18.9253 74.557 18.72C74.1903 18.5 73.589 18.2507 72.753 17.972C71.7703 17.6493 70.949 17.3193 70.289 16.982C69.6437 16.6447 69.079 16.146 68.595 15.486C68.111 14.826 67.869 13.968 67.869 12.912C67.869 11.9 68.1257 11.042 68.639 10.338C69.167 9.61933 69.8783 9.07667 70.773 8.71C71.6823 8.34333 72.7017 8.16 73.831 8.16C75.6937 8.16 77.175 8.59267 78.275 9.458C79.375 10.3233 79.9763 11.57 80.079 13.198H74.821C74.7477 12.3767 74.4103 11.966 73.809 11.966C73.6037 11.966 73.435 12.032 73.303 12.164C73.171 12.2813 73.105 12.4647 73.105 12.714C73.105 13.0513 73.2883 13.33 73.655 13.55C74.0363 13.7553 74.623 13.9973 75.415 14.276C76.4123 14.628 77.2337 14.98 77.879 15.332C78.539 15.6693 79.111 16.1753 79.595 16.85C80.0937 17.51 80.343 18.3607 80.343 19.402ZM94.291 8.424V12.296H90.155V24H85.271V12.296H81.179V8.424H94.291ZM100.39 8.424V17.202C100.39 17.9207 100.544 18.4927 100.852 18.918C101.174 19.3287 101.688 19.534 102.392 19.534C103.096 19.534 103.616 19.3287 103.954 18.918C104.291 18.4927 104.46 17.9207 104.46 17.202V8.424H109.322V17.202C109.322 18.6833 109.014 19.952 108.398 21.008C107.782 22.0493 106.938 22.834 105.868 23.362C104.797 23.89 103.602 24.154 102.282 24.154C100.962 24.154 99.7883 23.89 98.7616 23.362C97.7496 22.834 96.9576 22.0493 96.3856 21.008C95.8136 19.9667 95.5276 18.698 95.5276 17.202V8.424H100.39ZM126.014 16.168C126.014 17.6493 125.684 18.984 125.024 20.172C124.364 21.36 123.418 22.2987 122.186 22.988C120.969 23.6627 119.546 24 117.918 24H111.428V8.424H117.918C119.546 8.424 120.969 8.754 122.186 9.414C123.418 10.074 124.364 10.9907 125.024 12.164C125.684 13.3373 126.014 14.672 126.014 16.168ZM117.478 19.644C118.578 19.644 119.451 19.3433 120.096 18.742C120.741 18.1407 121.064 17.2827 121.064 16.168C121.064 15.0533 120.741 14.1953 120.096 13.594C119.451 12.9927 118.578 12.692 117.478 12.692H116.312V19.644H117.478ZM132.662 8.424V24H127.778V8.424H132.662ZM142.458 8.16C143.924 8.16 145.266 8.50467 146.484 9.194C147.701 9.86867 148.662 10.8147 149.366 12.032C150.084 13.2493 150.444 14.6207 150.444 16.146C150.444 17.6713 150.084 19.0427 149.366 20.26C148.662 21.4773 147.694 22.4307 146.462 23.12C145.244 23.8093 143.91 24.154 142.458 24.154C140.991 24.154 139.642 23.8093 138.41 23.12C137.192 22.4307 136.224 21.4773 135.506 20.26C134.787 19.0427 134.428 17.6713 134.428 16.146C134.428 14.6207 134.787 13.2493 135.506 12.032C136.224 10.8147 137.192 9.86867 138.41 9.194C139.642 8.50467 140.991 8.16 142.458 8.16ZM142.458 12.67C141.475 12.67 140.72 12.9853 140.192 13.616C139.664 14.232 139.4 15.0753 139.4 16.146C139.4 17.202 139.664 18.0453 140.192 18.676C140.72 19.292 141.475 19.6 142.458 19.6C143.426 19.6 144.174 19.292 144.702 18.676C145.23 18.0453 145.494 17.202 145.494 16.146C145.494 15.0753 145.23 14.232 144.702 13.616C144.174 12.9853 143.426 12.67 142.458 12.67Z" fill="#73A35A"/>
</svg>
