<?xml version="1.0" standalone="no"?>
<!DOCTYPE svg PUBLIC "-//W3C//DTD SVG 20010904//EN"
 "http://www.w3.org/TR/2001/REC-SVG-20010904/DTD/svg10.dtd">
<svg version="1.0" xmlns="http://www.w3.org/2000/svg"
 width="260.000000pt" height="260.000000pt" viewBox="0 0 260.000000 260.000000"
 preserveAspectRatio="xMidYMid meet">
<metadata>
Created by potrace 1.14, written by Peter Selinger 2001-2017
</metadata>
<g transform="translate(0.000000,260.000000) scale(0.100000,-0.100000)"
fill="#000000" stroke="none">
<path d="M309 2158 c60 -117 231 -449 380 -738 l271 -525 0 -327 0 -328 340 0
340 0 0 329 0 330 301 583 c165 321 337 652 380 736 l80 152 -378 0 -378 -1
-164 -367 c-91 -202 -168 -371 -171 -375 -4 -4 -83 161 -176 368 l-169 375
-383 0 -383 0 110 -212z"/>
</g>
</svg>
